Coordinates
version=1
nRows=11
nColumns=63
inDegrees=yes

Units are S.I. units (second, meters, Newtons, ...)
If the header above contains a line with 'inDegrees', this indicates whether rotational values are in degrees (yes) or radians (no).

endheader
time	pelvis_tilt	pelvis_list	pelvis_rotation	pelvis_tx	pelvis_ty	pelvis_tz	hip_flexion_r	hip_adduction_r	hip_rotation_r	knee_angle_r	knee_angle_r_beta	ankle_angle_r	subtalar_angle_r	mtp_angle_r	hip_flexion_l	hip_adduction_l	hip_rotation_l	knee_angle_l	knee_angle_l_beta	ankle_angle_l	subtalar_angle_l	mtp_angle_l	L5_S1_Flex_Ext	L5_S1_Lat_Bending	L5_S1_axial_rotation	L4_L5_Flex_Ext	L4_L5_Lat_Bending	L4_L5_axial_rotation	L3_L4_Flex_Ext	L3_L4_Lat_Bending	L3_L4_axial_rotation	L2_L3_Flex_Ext	L2_L3_Lat_Bending	L2_L3_axial_rotation	L1_L2_Flex_Ext	L1_L2_Lat_Bending	L1_L2_axial_rotation	L1_T12_Flex_Ext	L1_T12_Lat_Bending	L1_T12_axial_rotation	Abs_r3	Abs_r2	Abs_r1	Abs_t1	Abs_t2	neck_flexion	neck_bending	neck_rotation	arm_flex_r	arm_add_r	arm_rot_r	elbow_flex_r	pro_sup_r	wrist_flex_r	wrist_dev_r	arm_flex_l	arm_add_l	arm_rot_l	elbow_flex_l	pro_sup_l	wrist_flex_l	wrist_dev_l
3.933333	2.192239	-6.463995	84.465347	0.155646	0.966068	0.323125	-10.780829	0.397312	-26.578995	9.100647	0.158836	29.457740	16.249896	0.000000	-12.852942	-1.924842	2.505975	0.268082	0.004679	32.036316	-6.143154	0.000000	0.075812	0.593812	-0.079773	0.140790	0.789770	-0.084759	0.124551	1.443795	-0.084759	0.086645	1.443795	-0.069802	0.070399	1.210901	-0.064816	0.043319	0.919815	-0.059830	0.541517	6.717320	-0.443675	0.000000	0.000000	25.101687	-2.145107	5.085185	14.710361	-10.044634	137.716808	15.899546	9.589143	8.111501	2.580049	8.370036	-3.506691	149.961657	2.176919	10.899132	-4.734959	-15.277907
3.950000	2.162762	-6.649027	84.666799	0.155168	0.966364	0.325310	-10.377593	0.402517	-26.721468	9.304294	0.162391	29.520633	16.244675	0.000000	-12.491594	-1.946137	2.594055	0.278920	0.004868	31.826204	-6.224790	0.000000	0.082240	0.586655	-0.061328	0.152728	0.780252	-0.065160	0.135112	1.426394	-0.065160	0.093992	1.426394	-0.053662	0.076368	1.196308	-0.049829	0.046992	0.908729	-0.045996	0.587433	6.636362	-0.341085	0.000000	0.000000	25.263686	-1.927296	4.587787	15.902269	-9.393642	141.510486	15.033097	9.415751	8.135410	1.360632	9.167370	-3.390692	149.967715	2.252389	11.200450	-6.104667	-15.641737
3.966667	2.138262	-6.864008	84.921204	0.154577	0.966631	0.327827	-9.913074	0.408453	-26.897124	9.537390	0.166459	29.626457	16.231191	0.000000	-12.058507	-1.981856	2.779933	0.292112	0.005098	31.640171	-6.355367	0.000000	0.088948	0.580981	-0.046265	0.165186	0.772704	-0.049156	0.146133	1.412597	-0.049156	0.101659	1.412597	-0.040482	0.082598	1.184736	-0.037590	0.050825	0.899939	-0.034698	0.635350	6.572171	-0.257310	0.000000	0.000000	25.446729	-1.764217	4.083635	17.161537	-8.785593	144.458622	14.160902	9.359478	7.887471	0.006748	10.175776	-3.174929	150.827875	2.263129	11.486726	-7.002597	-15.882712
3.983333	2.115820	-7.114551	85.229072	0.153862	0.966842	0.330603	-9.388594	0.410855	-27.098731	9.789427	0.170858	29.783177	16.203340	0.000000	-11.553361	-2.025672	3.082876	0.304571	0.005316	31.482913	-6.558092	0.000000	0.097465	0.576087	-0.035926	0.181002	0.766196	-0.038171	0.160125	1.400699	-0.038171	0.111393	1.400699	-0.031435	0.090506	1.174758	-0.029190	0.055692	0.892359	-0.026945	0.696183	6.516817	-0.199810	0.000000	0.000000	25.658139	-1.646979	3.570127	18.360513	-8.277128	145.686657	13.435311	9.940306	7.322449	-1.335992	11.363401	-2.853962	152.320507	2.223852	11.749665	-7.307888	-15.991655
4.000000	2.107532	-7.407392	85.611681	0.153026	0.967000	0.333618	-8.793911	0.420020	-27.369736	10.072637	0.175801	29.961787	16.151520	0.000000	-10.966920	-2.093087	3.462666	0.324496	0.005664	31.364208	-6.742235	0.000000	0.108160	0.572565	-0.047098	0.200863	0.761511	-0.050042	0.177695	1.392134	-0.050042	0.123616	1.392134	-0.041211	0.100437	1.167574	-0.038267	0.061802	0.886903	-0.035323	0.772573	6.476965	-0.261945	0.000000	0.000000	25.882259	-1.519562	3.109853	19.527395	-7.840734	145.331270	12.926619	10.856870	6.525199	-2.535754	12.615937	-2.431091	154.421979	2.033135	11.745275	-7.169052	-16.190415
4.016667	2.175030	-7.717198	86.035706	0.151897	0.967242	0.336897	-8.154451	0.483354	-27.689364	10.369293	0.180978	30.095148	16.082733	0.000000	-10.330629	-2.225995	3.886565	0.352850	0.006158	31.260201	-6.929588	0.000000	0.118282	0.577820	-0.045915	0.219661	0.768500	-0.048785	0.194325	1.404911	-0.048785	0.135184	1.404911	-0.040176	0.109836	1.178290	-0.037306	0.067586	0.895043	-0.034436	0.844874	6.536414	-0.255367	0.000000	0.000000	26.095885	-1.477286	2.481035	20.534729	-7.619641	143.013774	12.784019	12.235586	5.511492	-3.497263	14.550660	-1.287345	161.441134	-0.005444	8.512984	-5.347700	-17.670884
4.033333	2.224781	-8.065014	86.551410	0.150779	0.967362	0.340261	-7.472554	0.532365	-28.117670	10.679629	0.186395	30.264852	15.992881	0.000000	-9.637305	-2.356333	4.433518	0.385136	0.006722	31.170519	-7.117723	0.000000	0.131508	0.578418	-0.089435	0.244224	0.769295	-0.095024	0.216055	1.406364	-0.095024	0.150301	1.406364	-0.078255	0.122119	1.179509	-0.072666	0.075144	0.895969	-0.067076	0.939350	6.543175	-0.497409	0.000000	0.000000	26.307002	-1.352259	1.987144	21.498369	-7.370387	139.659106	12.949995	13.625225	4.463349	-4.233329	16.137635	-0.408496	165.035532	-1.025014	6.957050	-3.454665	-18.478359
4.050000	2.238884	-8.436702	87.127734	0.149714	0.967373	0.343645	-6.768070	0.547292	-28.625324	10.995473	0.191907	30.475903	15.869658	0.000000	-8.914180	-2.459279	5.059156	0.420412	0.007338	31.088780	-7.282731	0.000000	0.147377	0.571164	-0.159766	0.273693	0.759648	-0.169751	0.242125	1.388728	-0.169751	0.168437	1.388728	-0.139795	0.136854	1.164718	-0.129810	0.084211	0.884733	-0.119824	1.052697	6.461122	-0.888570	0.000000	0.000000	26.504903	-1.161105	1.500466	22.317561	-7.137722	135.102411	13.505760	15.174287	3.415486	-4.647408	17.364290	0.271189	165.379962	-1.163913	7.727447	-1.436802	-18.758605
4.066667	2.235462	-8.826607	87.777727	0.148702	0.967296	0.347038	-6.045587	0.547434	-29.196158	11.317997	0.197536	30.712155	15.682247	0.000000	-8.165178	-2.551420	5.786334	0.464911	0.008114	31.010976	-7.434685	0.000000	0.166074	0.558480	-0.259136	0.308415	0.742779	-0.275332	0.272842	1.357889	-0.275332	0.189806	1.357889	-0.226744	0.154216	1.138853	-0.210548	0.094894	0.865086	-0.194352	1.186247	6.317640	-1.441235	0.000000	0.000000	26.675999	-0.864439	1.085024	23.028011	-6.899054	129.710148	14.442777	16.689745	2.472702	-4.719453	18.235334	0.751890	163.013888	-0.412922	9.187260	0.602725	-18.568490
4.083333	2.200021	-9.216218	88.494640	0.147705	0.967171	0.350348	-5.339546	0.517593	-29.836208	11.626128	0.202914	30.966560	15.478017	0.000000	-7.419314	-2.612811	6.666934	0.516291	0.009011	30.878794	-7.668124	0.000000	0.186573	0.539765	-0.385667	0.346485	0.717888	-0.409771	0.306521	1.312386	-0.409771	0.213235	1.312386	-0.337459	0.173252	1.100690	-0.313355	0.106608	0.836097	-0.289250	1.332675	6.105934	-2.144965	0.000000	0.000000	26.822064	-0.488885	0.751676	23.664087	-6.624589	124.134375	15.721496	17.830792	1.781822	-4.543601	18.740799	1.062750	158.182677	1.007544	12.017137	2.682389	-18.322223
4.100000	2.149546	-9.601310	89.267313	0.146733	0.967012	0.353546	-4.655322	0.474868	-30.519122	11.914210	0.207942	31.218648	15.226273	0.000000	-6.680528	-2.657795	7.641226	0.580074	0.010124	30.719121	-7.904241	0.000000	0.209308	0.517652	-0.527146	0.388705	0.688477	-0.560092	0.343871	1.258618	-0.560092	0.239218	1.258618	-0.461253	0.194363	1.055595	-0.428306	0.119598	0.801842	-0.395359	1.495063	5.855778	-2.931827	0.000000	0.000000	26.946931	-0.047901	0.498720	24.183800	-6.358560	118.205526	17.344052	18.866954	1.312605	-4.046061	18.911718	1.215462	151.307612	3.088076	15.484085	4.840927	-17.777506
